<?xml version="1.0" encoding="utf-8"?>
<!--
  ~ Licensed to the Apache Software Foundation (ASF) under one
  ~ or more contributor license agreements.  See the NOTICE file
  ~ distributed with this work for additional information
  ~ regarding copyright ownership.  The ASF licenses this file
  ~ to you under the Apache License, Version 2.0 (the
  ~ "License"); you may not use this file except in compliance
  ~ with the License.  You may obtain a copy of the License at
  ~
  ~   http://www.apache.org/licenses/LICENSE-2.0
  ~
  ~ Unless required by applicable law or agreed to in writing,
  ~ software distributed under the License is distributed on an
  ~ "AS IS" BASIS, WITHOUT WARRANTIES OR CONDITIONS OF ANY
  ~ KIND, either express or implied.  See the License for the
  ~ specific language governing permissions and limitations
  ~ under the License.
-->

<svg viewBox="826.653 387.721 1272.897 902.248" xmlns="http://www.w3.org/2000/svg">
  <rect x="826.653" y="510.867" width="67.059" height="779.102" style=""/>
  <rect x="883.957" y="510.867" width="1215.593" height="53.648" style=""/>
  <rect x="1586.656" y="387.721" width="66.964" height="484.043" style="" transform="matrix(1, 0, 0.000395, 1, -586.809143, 0.003021)"/>
  <rect x="880.299" y="871.767" width="696.192" height="53.648" style=""/>
  <rect x="2032.491" y="510.867" width="67.059" height="578.405" style=""/>
  <rect x="1085.671" y="507.656" width="39.025" height="503.146" style="" transform="matrix(0.999746, -0.022519, 0, 1.000254, 610.582581, 68.644112)"/>
  <rect x="1678.626" y="1226.226" width="540.2" height="58.852" style="stroke-linejoin: round;" transform="matrix(0.683557, -0.729897, -0.189717, 1.665514, 792.342468, 88.084869)"/>
  <rect x="1942.282" y="1040.377" width="625.048" height="49.932" style="stroke-linejoin: round;" transform="matrix(0.277672, -0.960676, 0.487531, 1.914635, -6.512513, 988.954224)" rx="24.966" ry="24.966"/>
  <rect x="-1985.672" y="-872.044" width="639.012" height="41.854" style="stroke-linejoin: round;" transform="matrix(0.325302, 0.94561, 0.25126, -2.343687, 2061.740727, 438.367484)" rx="24.966" ry="24.966"/>
  <path style="" transform="matrix(4.726356, 0.092386, -0.125135, 6.4018, -2071.378906, -3573.793945)" d="M 786.054 707.505 A 39.177 39.177 0 1 1 790.813 641.515 L 785.698 648.422 A 30.582 30.582 0 1 0 781.984 699.935 Z"/>
  <rect x="1526.519" y="871.764" width="49.972" height="221.165" style=""/>
  <path d="M 811.5 618 m -216.244 0 a 216.244 196.044 0 1 0 432.488 0 a 216.244 196.044 0 1 0 -432.488 0 Z M 811.5 618 m -172.411 0 a 172.411 155.992 0 0 1 344.822 0 a 172.411 155.992 0 0 1 -344.822 0 Z" style="" transform="matrix(-0.526731, -0.850032, 0.629085, -0.883293, 1754.735229, 2043.990356)"/>
</svg>