<!--
  ~ Licensed to the Apache Software Foundation (ASF) under one
  ~ or more contributor license agreements.  See the NOTICE file
  ~ distributed with this work for additional information
  ~ regarding copyright ownership.  The ASF licenses this file
  ~ to you under the Apache License, Version 2.0 (the
  ~ "License"); you may not use this file except in compliance
  ~ with the License.  You may obtain a copy of the License at
  ~
  ~   http://www.apache.org/licenses/LICENSE-2.0
  ~
  ~ Unless required by applicable law or agreed to in writing,
  ~ software distributed under the License is distributed on an
  ~ "AS IS" BASIS, WITHOUT WARRANTIES OR CONDITIONS OF ANY
  ~ KIND, either express or implied.  See the License for the
  ~ specific language governing permissions and limitations
  ~ under the License.
-->

<svg xmlns="http://www.w3.org/2000/svg" height="26" width="26">
    <path d="M.032 17.056l13-8 13 8-13 8-13-8" fill="#b9b9b9"/>
    <path d="M.032 17.056l-.032.93 13 8 13-8 .032-.93-13 8z" fill="#737373"/>
    <path d="M0 13.076l13-8 13 8-13 8-13-8" fill="#cdcdcd"/>
    <path d="M0 13.076v.91l13 8 13-8v-.91l-13 8z" fill="#737373"/>
    <path d="M0 8.986l13-8 13 8-13 8-13-8" fill-opacity=".585" stroke="#797979" stroke-width=".1" fill="#e9e9e9"/>
    <path d="M0 8.986v1l13 8 13-8v-1l-13 8z" fill="#737373"/>
</svg>
